<?xml version="1.0" encoding="utf-8" standalone="no"?>
<!DOCTYPE svg PUBLIC "-//W3C//DTD SVG 1.1//EN"
  "http://www.w3.org/Graphics/SVG/1.1/DTD/svg11.dtd">
<svg xmlns:xlink="http://www.w3.org/1999/xlink" width="170.07874pt" height="100.629921pt" viewBox="0 0 170.07874 100.629921" xmlns="http://www.w3.org/2000/svg" version="1.1">
 <metadata>
  <rdf:RDF xmlns:dc="http://purl.org/dc/elements/1.1/" xmlns:cc="http://creativecommons.org/ns#" xmlns:rdf="http://www.w3.org/1999/02/22-rdf-syntax-ns#">
   <cc:Work>
    <dc:type rdf:resource="http://purl.org/dc/dcmitype/StillImage"/>
    <dc:date>2026-07-14T01:20:16.141142</dc:date>
    <dc:format>image/svg+xml</dc:format>
    <dc:creator>
     <cc:Agent>
      <dc:title>Matplotlib v3.11.0, https://matplotlib.org/</dc:title>
     </cc:Agent>
    </dc:creator>
   </cc:Work>
  </rdf:RDF>
 </metadata>
 <defs>
  <style type="text/css">*{stroke-linejoin: round; stroke-linecap: butt}</style>
 </defs>
 <g id="figure_1">
  <g id="patch_1">
   <path d="M 0 100.629921 
L 170.07874 100.629921 
L 170.07874 0 
L 0 0 
z
" style="fill: #ffffff"/>
  </g>
  <g id="axes_1">
   <g id="patch_2">
    <path d="M 0 100.629921 
L 170.07874 100.629921 
L 170.07874 0 
L 0 0 
z
" clip-path="url(#p624cde2c83)" style="fill: #ffffff"/>
   </g>
   <g id="line2d_1">
    <path d="M 20.417605 45.929416 
L 23.67641 42.82724 
L 27.083946 39.889212 
L 30.631953 37.122454 
L 34.311833 34.53367 
L 34.885089 34.154237 
L 34.885089 34.154237 
" clip-path="url(#p624cde2c83)" style="fill: none; stroke: #555555; stroke-width: 5.669291"/>
   </g>
   <g id="line2d_2">
    <path d="M 34.885089 34.154237 
L 38.666749 31.801419 
L 42.558548 29.63564 
L 46.551244 27.662044 
L 50.635352 25.885317 
L 54.801174 24.30968 
L 59.038814 22.938876 
L 63.338208 21.776159 
L 64.606776 21.475628 
L 64.606776 21.475628 
" clip-path="url(#p624cde2c83)" style="fill: none; stroke: #7a2020; stroke-width: 5.669291"/>
   </g>
   <g id="line2d_3">
    <path d="M 64.606776 21.475628 
L 69.015141 20.578023 
L 73.462338 19.898452 
L 77.937589 19.43856 
L 82.43005 19.199463 
L 83.92948 19.168945 
L 83.92948 19.168945 
" clip-path="url(#p624cde2c83)" style="fill: none; stroke: #e8a020; stroke-width: 5.669291"/>
   </g>
   <g id="line2d_4">
    <path d="M 83.92948 19.168945 
L 88.470247 19.226628 
L 93.002543 19.509801 
L 97.515176 20.017766 
L 101.997006 20.749268 
L 106.436965 21.702501 
L 110.824091 22.875112 
L 115.147552 24.264204 
L 115.657505 24.443836 
L 115.657505 24.443836 
" clip-path="url(#p624cde2c83)" style="fill: none; stroke: #2e9e3e; stroke-width: 5.669291"/>
   </g>
   <g id="line2d_5">
    <path d="M 115.657505 24.443836 
L 119.854631 26.053592 
L 123.967524 27.867786 
L 127.986231 29.882029 
L 128.313164 30.056934 
L 128.313164 30.056934 
" clip-path="url(#p624cde2c83)" style="fill: none; stroke: #e8a020; stroke-width: 5.669291"/>
   </g>
   <g id="line2d_6">
    <path d="M 128.313164 30.056934 
L 132.192136 32.26605 
L 135.958608 34.661945 
L 139.603593 37.2389 
L 143.118396 39.990769 
L 146.49463 42.910986 
L 149.661135 45.929416 
L 149.661135 45.929416 
" clip-path="url(#p624cde2c83)" style="fill: none; stroke: #cc3333; stroke-width: 5.669291"/>
   </g>
   <g id="line2d_7">
    <path d="M 147.175683 48.414869 
L 143.968639 45.365416 
L 140.612138 42.48129 
L 137.114692 39.769803 
L 133.485172 37.237833 
L 129.732782 34.891803 
L 125.867041 32.737661 
L 121.897751 30.780871 
L 117.83498 29.026396 
L 113.689033 27.478686 
L 109.470424 26.141666 
L 105.189852 25.018727 
L 100.858174 24.112717 
L 96.486376 23.425934 
L 92.085546 22.96012 
L 87.666846 22.716456 
L 83.241481 22.69556 
L 78.820677 22.897485 
L 74.415644 23.321719 
L 70.037555 23.967186 
L 65.697515 24.832249 
L 61.406529 25.914714 
L 57.175482 27.211836 
L 53.015104 28.720325 
L 48.935946 30.436355 
L 44.948354 32.355573 
L 41.062442 34.473113 
L 37.288065 36.783603 
L 33.634796 39.281185 
L 30.1119 41.959522 
L 26.728312 44.811823 
L 23.492614 47.830854 
L 22.903058 48.414869 
L 22.903058 48.414869 
" clip-path="url(#p624cde2c83)" style="fill: none; stroke: #0b0b0b; stroke-width: 0.992126; stroke-linecap: square"/>
   </g>
   <g id="line2d_8">
    <path d="M 26.001456 50.293609 
L 23.541543 47.782877 
" clip-path="url(#p624cde2c83)" style="fill: none; stroke: #52514e; stroke-width: 0.425197; stroke-linecap: square"/>
   </g>
   <g id="line2d_9">
    <path d="M 27.245796 49.099143 
L 24.837731 46.538641 
" clip-path="url(#p624cde2c83)" style="fill: none; stroke: #52514e; stroke-width: 0.425197; stroke-linecap: square"/>
   </g>
   <g id="line2d_10">
    <path d="M 28.514297 47.930367 
L 26.159086 45.321167 
" clip-path="url(#p624cde2c83)" style="fill: none; stroke: #52514e; stroke-width: 0.425197; stroke-linecap: square"/>
   </g>
   <g id="line2d_11">
    <path d="M 29.806429 46.787771 
L 27.505057 44.130962 
" clip-path="url(#p624cde2c83)" style="fill: none; stroke: #52514e; stroke-width: 0.425197; stroke-linecap: square"/>
   </g>
   <g id="line2d_12">
    <path d="M 31.121652 45.671832 
L 28.875081 42.968526 
" clip-path="url(#p624cde2c83)" style="fill: none; stroke: #52514e; stroke-width: 0.425197; stroke-linecap: square"/>
   </g>
   <g id="line2d_13">
    <path d="M 32.459417 44.583017 
L 30.268585 41.834344 
" clip-path="url(#p624cde2c83)" style="fill: none; stroke: #52514e; stroke-width: 0.425197; stroke-linecap: square"/>
   </g>
   <g id="line2d_14">
    <path d="M 33.819162 43.521781 
L 31.684987 40.728889 
" clip-path="url(#p624cde2c83)" style="fill: none; stroke: #52514e; stroke-width: 0.425197; stroke-linecap: square"/>
   </g>
   <g id="line2d_15">
    <path d="M 35.200322 42.488567 
L 33.123695 39.652625 
" clip-path="url(#p624cde2c83)" style="fill: none; stroke: #52514e; stroke-width: 0.425197; stroke-linecap: square"/>
   </g>
   <g id="line2d_16">
    <path d="M 36.602318 41.483807 
L 34.584107 38.606 
" clip-path="url(#p624cde2c83)" style="fill: none; stroke: #52514e; stroke-width: 0.425197; stroke-linecap: square"/>
   </g>
   <g id="line2d_17">
    <path d="M 38.024569 40.507918 
L 36.065619 37.589449 
" clip-path="url(#p624cde2c83)" style="fill: none; stroke: #52514e; stroke-width: 0.425197; stroke-linecap: square"/>
   </g>
   <g id="line2d_18">
    <path d="M 39.466508 39.561291 
L 37.567639 36.603379 
" clip-path="url(#p624cde2c83)" style="fill: none; stroke: #52514e; stroke-width: 0.425197; stroke-linecap: square"/>
   </g>
   <g id="line2d_19">
    <path d="M 40.92768 38.644234 
L 39.089693 35.648111 
" clip-path="url(#p624cde2c83)" style="fill: none; stroke: #52514e; stroke-width: 0.425197; stroke-linecap: square"/>
   </g>
   <g id="line2d_20">
    <path d="M 42.408151 37.756749 
L 40.63185 34.723648 
" clip-path="url(#p624cde2c83)" style="fill: none; stroke: #52514e; stroke-width: 0.425197; stroke-linecap: square"/>
   </g>
   <g id="line2d_21">
    <path d="M 43.91002 36.897758 
L 42.196297 33.828865 
" clip-path="url(#p624cde2c83)" style="fill: none; stroke: #52514e; stroke-width: 0.425197; stroke-linecap: square"/>
   </g>
   <g id="line2d_22">
    <path d="M 45.442148 36.062859 
L 43.792263 32.959179 
" clip-path="url(#p624cde2c83)" style="fill: none; stroke: #52514e; stroke-width: 0.425197; stroke-linecap: square"/>
   </g>
   <g id="line2d_23">
    <path d="M 47.032546 35.238954 
L 45.448929 32.100945 
" clip-path="url(#p624cde2c83)" style="fill: none; stroke: #52514e; stroke-width: 0.425197; stroke-linecap: square"/>
   </g>
   <g id="line2d_24">
    <path d="M 48.755135 34.394077 
L 47.243292 31.220865 
" clip-path="url(#p624cde2c83)" style="fill: none; stroke: #52514e; stroke-width: 0.425197; stroke-linecap: square"/>
   </g>
   <g id="line2d_25">
    <path d="M 50.77544 33.464001 
L 49.347776 30.252036 
" clip-path="url(#p624cde2c83)" style="fill: none; stroke: #52514e; stroke-width: 0.425197; stroke-linecap: square"/>
   </g>
   <g id="line2d_26">
    <path d="M 53.406937 32.347349 
L 52.088919 29.088856 
" clip-path="url(#p624cde2c83)" style="fill: none; stroke: #52514e; stroke-width: 0.425197; stroke-linecap: square"/>
   </g>
   <g id="line2d_27">
    <path d="M 57.144025 30.937741 
L 55.981719 27.620514 
" clip-path="url(#p624cde2c83)" style="fill: none; stroke: #52514e; stroke-width: 0.425197; stroke-linecap: square"/>
   </g>
   <g id="line2d_28">
    <path d="M 62.61093 29.228274 
L 61.676411 25.839819 
" clip-path="url(#p624cde2c83)" style="fill: none; stroke: #52514e; stroke-width: 0.425197; stroke-linecap: square"/>
   </g>
   <g id="line2d_29">
    <path d="M 70.364568 27.478319 
L 69.753118 24.01695 
" clip-path="url(#p624cde2c83)" style="fill: none; stroke: #52514e; stroke-width: 0.425197; stroke-linecap: square"/>
   </g>
   <g id="line2d_30">
    <path d="M 80.551377 26.311594 
L 80.364377 22.801611 
" clip-path="url(#p624cde2c83)" style="fill: none; stroke: #52514e; stroke-width: 0.425197; stroke-linecap: square"/>
   </g>
   <g id="line2d_31">
    <path d="M 92.575557 26.529422 
L 92.889565 23.028515 
" clip-path="url(#p624cde2c83)" style="fill: none; stroke: #52514e; stroke-width: 0.425197; stroke-linecap: square"/>
   </g>
   <g id="line2d_32">
    <path d="M 105.097417 28.611417 
L 105.933169 25.19726 
" clip-path="url(#p624cde2c83)" style="fill: none; stroke: #52514e; stroke-width: 0.425197; stroke-linecap: square"/>
   </g>
   <g id="line2d_33">
    <path d="M 116.541284 32.294682 
L 117.853864 29.033995 
" clip-path="url(#p624cde2c83)" style="fill: none; stroke: #52514e; stroke-width: 0.425197; stroke-linecap: square"/>
   </g>
   <g id="line2d_34">
    <path d="M 125.796646 36.691215 
L 127.494866 33.613716 
" clip-path="url(#p624cde2c83)" style="fill: none; stroke: #52514e; stroke-width: 0.425197; stroke-linecap: square"/>
   </g>
   <g id="line2d_35">
    <path d="M 132.561162 40.850898 
L 134.541236 37.946719 
" clip-path="url(#p624cde2c83)" style="fill: none; stroke: #52514e; stroke-width: 0.425197; stroke-linecap: square"/>
   </g>
   <g id="line2d_36">
    <path d="M 137.176423 44.232421 
L 139.3488 41.469139 
" clip-path="url(#p624cde2c83)" style="fill: none; stroke: #52514e; stroke-width: 0.425197; stroke-linecap: square"/>
   </g>
   <g id="line2d_37">
    <path d="M 140.253599 46.771568 
L 142.554192 44.114084 
" clip-path="url(#p624cde2c83)" style="fill: none; stroke: #52514e; stroke-width: 0.425197; stroke-linecap: square"/>
   </g>
   <g id="line2d_38">
    <path d="M 142.380831 48.677058 
L 144.770058 46.09897 
" clip-path="url(#p624cde2c83)" style="fill: none; stroke: #52514e; stroke-width: 0.425197; stroke-linecap: square"/>
   </g>
   <g id="line2d_39">
    <path d="M 143.991052 50.209244 
L 146.447372 47.694996 
" clip-path="url(#p624cde2c83)" style="fill: none; stroke: #52514e; stroke-width: 0.425197; stroke-linecap: square"/>
   </g>
   <g id="line2d_40">
    <path d="M 28.446161 51.595008 
L 24.186457 47.157446 
" clip-path="url(#p624cde2c83)" style="fill: none; stroke: #52514e; stroke-width: 0.566929; stroke-linecap: square"/>
   </g>
   <g id="line2d_41">
    <path d="M 30.903753 49.330623 
L 26.829029 44.722624 
" clip-path="url(#p624cde2c83)" style="fill: none; stroke: #52514e; stroke-width: 0.566929; stroke-linecap: square"/>
   </g>
   <g id="line2d_42">
    <path d="M 33.451865 47.168605 
L 29.568934 42.397873 
" clip-path="url(#p624cde2c83)" style="fill: none; stroke: #52514e; stroke-width: 0.566929; stroke-linecap: square"/>
   </g>
   <g id="line2d_43">
    <path d="M 36.086235 45.112567 
L 32.40159 40.18708 
" clip-path="url(#p624cde2c83)" style="fill: none; stroke: #52514e; stroke-width: 0.566929; stroke-linecap: square"/>
   </g>
   <g id="line2d_44">
    <path d="M 38.802461 43.165946 
L 35.322263 38.093939 
" clip-path="url(#p624cde2c83)" style="fill: none; stroke: #52514e; stroke-width: 0.566929; stroke-linecap: square"/>
   </g>
   <g id="line2d_45">
    <path d="M 41.596103 41.331933 
L 38.32618 36.121882 
" clip-path="url(#p624cde2c83)" style="fill: none; stroke: #52514e; stroke-width: 0.566929; stroke-linecap: square"/>
   </g>
   <g id="line2d_46">
    <path d="M 44.46496 39.6122 
L 41.410973 34.272707 
" clip-path="url(#p624cde2c83)" style="fill: none; stroke: #52514e; stroke-width: 0.566929; stroke-linecap: square"/>
   </g>
   <g id="line2d_47">
    <path d="M 47.439849 37.991566 
L 44.609777 32.53009 
" clip-path="url(#p624cde2c83)" style="fill: none; stroke: #52514e; stroke-width: 0.566929; stroke-linecap: square"/>
   </g>
   <g id="line2d_48">
    <path d="M 50.816536 36.339192 
L 48.240624 30.753343 
" clip-path="url(#p624cde2c83)" style="fill: none; stroke: #52514e; stroke-width: 0.566929; stroke-linecap: square"/>
   </g>
   <g id="line2d_49">
    <path d="M 56.035437 34.148344 
L 53.852345 28.397592 
" clip-path="url(#p624cde2c83)" style="fill: none; stroke: #52514e; stroke-width: 0.566929; stroke-linecap: square"/>
   </g>
   <g id="line2d_50">
    <path d="M 66.767916 30.897081 
L 65.392645 24.901611 
" clip-path="url(#p624cde2c83)" style="fill: none; stroke: #52514e; stroke-width: 0.566929; stroke-linecap: square"/>
   </g>
   <g id="line2d_51">
    <path d="M 86.36109 28.839035 
L 86.460575 22.688659 
" clip-path="url(#p624cde2c83)" style="fill: none; stroke: #52514e; stroke-width: 0.566929; stroke-linecap: square"/>
   </g>
   <g id="line2d_52">
    <path d="M 110.228657 32.807232 
L 112.124624 26.955537 
" clip-path="url(#p624cde2c83)" style="fill: none; stroke: #52514e; stroke-width: 0.566929; stroke-linecap: square"/>
   </g>
   <g id="line2d_53">
    <path d="M 128.090939 41.087636 
L 131.33138 35.859197 
" clip-path="url(#p624cde2c83)" style="fill: none; stroke: #52514e; stroke-width: 0.566929; stroke-linecap: square"/>
   </g>
   <g id="line2d_54">
    <path d="M 137.185555 47.627441 
L 141.110537 42.891245 
" clip-path="url(#p624cde2c83)" style="fill: none; stroke: #52514e; stroke-width: 0.566929; stroke-linecap: square"/>
   </g>
   <g id="line2d_55">
    <path d="M 141.41201 51.384069 
L 145.655112 46.93063 
" clip-path="url(#p624cde2c83)" style="fill: none; stroke: #52514e; stroke-width: 0.566929; stroke-linecap: square"/>
   </g>
   <g id="line2d_56">
    <path d="M 30.359415 55.871226 
L 22.903058 48.414869 
" clip-path="url(#p624cde2c83)" style="fill: none; stroke: #0b0b0b; stroke-width: 0.992126; stroke-linecap: square"/>
   </g>
   <g id="line2d_57">
    <path d="M 32.640585 53.681485 
L 25.495296 45.926527 
" clip-path="url(#p624cde2c83)" style="fill: none; stroke: #0b0b0b; stroke-width: 0.992126; stroke-linecap: square"/>
   </g>
   <g id="line2d_58">
    <path d="M 35.00937 51.586835 
L 28.187098 43.546243 
" clip-path="url(#p624cde2c83)" style="fill: none; stroke: #0b0b0b; stroke-width: 0.992126; stroke-linecap: square"/>
   </g>
   <g id="line2d_59">
    <path d="M 37.46181 49.590778 
L 30.973961 41.277996 
" clip-path="url(#p624cde2c83)" style="fill: none; stroke: #0b0b0b; stroke-width: 0.992126; stroke-linecap: square"/>
   </g>
   <g id="line2d_60">
    <path d="M 39.993803 47.696652 
L 33.851226 39.12558 
" clip-path="url(#p624cde2c83)" style="fill: none; stroke: #0b0b0b; stroke-width: 0.992126; stroke-linecap: square"/>
   </g>
   <g id="line2d_61">
    <path d="M 42.601133 45.907613 
L 36.8141 37.092581 
" clip-path="url(#p624cde2c83)" style="fill: none; stroke: #0b0b0b; stroke-width: 0.992126; stroke-linecap: square"/>
   </g>
   <g id="line2d_62">
    <path d="M 45.279945 44.226351 
L 39.858205 35.182056 
" clip-path="url(#p624cde2c83)" style="fill: none; stroke: #0b0b0b; stroke-width: 0.992126; stroke-linecap: square"/>
   </g>
   <g id="line2d_63">
    <path d="M 48.035238 42.650598 
L 42.98922 33.391428 
" clip-path="url(#p624cde2c83)" style="fill: none; stroke: #0b0b0b; stroke-width: 0.992126; stroke-linecap: square"/>
   </g>
   <g id="line2d_64">
    <path d="M 50.967243 41.132991 
L 46.321044 31.666874 
" clip-path="url(#p624cde2c83)" style="fill: none; stroke: #0b0b0b; stroke-width: 0.992126; stroke-linecap: square"/>
   </g>
   <g id="line2d_65">
    <path d="M 54.742386 39.404237 
L 50.610979 29.702381 
" clip-path="url(#p624cde2c83)" style="fill: none; stroke: #0b0b0b; stroke-width: 0.992126; stroke-linecap: square"/>
   </g>
   <g id="line2d_66">
    <path d="M 61.739558 36.815751 
L 58.562311 26.760919 
" clip-path="url(#p624cde2c83)" style="fill: none; stroke: #0b0b0b; stroke-width: 0.992126; stroke-linecap: square"/>
   </g>
   <g id="line2d_67">
    <path d="M 75.993536 33.752953 
L 74.760013 23.280467 
" clip-path="url(#p624cde2c83)" style="fill: none; stroke: #0b0b0b; stroke-width: 0.992126; stroke-linecap: square"/>
   </g>
   <g id="line2d_68">
    <path d="M 97.722928 34.26932 
L 99.452504 23.867248 
" clip-path="url(#p624cde2c83)" style="fill: none; stroke: #0b0b0b; stroke-width: 0.992126; stroke-linecap: square"/>
   </g>
   <g id="line2d_69">
    <path d="M 118.443682 40.809179 
L 122.998815 31.298906 
" clip-path="url(#p624cde2c83)" style="fill: none; stroke: #0b0b0b; stroke-width: 0.992126; stroke-linecap: square"/>
   </g>
   <g id="line2d_70">
    <path d="M 130.92951 48.3106 
L 137.187256 39.823248 
" clip-path="url(#p624cde2c83)" style="fill: none; stroke: #0b0b0b; stroke-width: 0.992126; stroke-linecap: square"/>
   </g>
   <g id="line2d_71">
    <path d="M 136.70757 53.016913 
L 143.753234 45.171331 
" clip-path="url(#p624cde2c83)" style="fill: none; stroke: #0b0b0b; stroke-width: 0.992126; stroke-linecap: square"/>
   </g>
   <g id="line2d_72">
    <path d="M 139.719325 55.871226 
L 147.175683 48.414869 
" clip-path="url(#p624cde2c83)" style="fill: none; stroke: #0b0b0b; stroke-width: 0.992126; stroke-linecap: square"/>
   </g>
   <g id="text_1">
    <!-- 0 -->
    <g style="fill: #0b0b0b" transform="translate(33.739695 62.140959) scale(0.05 -0.05)">
     <defs>
      <path id="DejaVuSans-13" d="M 2034 4250 
Q 1547 4250 1301 3770 
Q 1056 3291 1056 2328 
Q 1056 1369 1301 889 
Q 1547 409 2034 409 
Q 2525 409 2770 889 
Q 3016 1369 3016 2328 
Q 3016 3291 2770 3770 
Q 2525 4250 2034 4250 
z
M 2034 4750 
Q 2819 4750 3233 4129 
Q 3647 3509 3647 2328 
Q 3647 1150 3233 529 
Q 2819 -91 2034 -91 
Q 1250 -91 836 529 
Q 422 1150 422 2328 
Q 422 3509 836 4129 
Q 1250 4750 2034 4750 
z
" transform="scale(0.015625)"/>
     </defs>
     <use xlink:href="#DejaVuSans-13"/>
    </g>
   </g>
   <g id="text_2">
    <!-- 5 -->
    <g style="fill: #0b0b0b" transform="translate(44.868529 53.083129) scale(0.05 -0.05)">
     <defs>
      <path id="DejaVuSans-18" d="M 691 4666 
L 3169 4666 
L 3169 4134 
L 1269 4134 
L 1269 2991 
Q 1406 3038 1543 3061 
Q 1681 3084 1819 3084 
Q 2600 3084 3056 2656 
Q 3513 2228 3513 1497 
Q 3513 744 3044 326 
Q 2575 -91 1722 -91 
Q 1428 -91 1123 -41 
Q 819 9 494 109 
L 494 744 
Q 775 591 1075 516 
Q 1375 441 1709 441 
Q 2250 441 2565 725 
Q 2881 1009 2881 1497 
Q 2881 1984 2565 2268 
Q 2250 2553 1709 2553 
Q 1456 2553 1204 2497 
Q 953 2441 691 2322 
L 691 4666 
z
" transform="scale(0.015625)"/>
     </defs>
     <use xlink:href="#DejaVuSans-18"/>
    </g>
   </g>
   <g id="text_3">
    <!-- 10 -->
    <g style="fill: #0b0b0b" transform="translate(60.676473 44.8178) scale(0.05 -0.05)">
     <defs>
      <path id="DejaVuSans-14" d="M 794 531 
L 1825 531 
L 1825 4091 
L 703 3866 
L 703 4441 
L 1819 4666 
L 2450 4666 
L 2450 531 
L 3481 531 
L 3481 0 
L 794 0 
L 794 531 
z
" transform="scale(0.015625)"/>
     </defs>
     <use xlink:href="#DejaVuSans-14"/>
     <use xlink:href="#DejaVuSans-13" transform="translate(63.625 0)"/>
    </g>
   </g>
   <g id="text_4">
    <!-- 11 -->
    <g style="fill: #0b0b0b" transform="translate(73.634634 42.033438) scale(0.05 -0.05)">
     <use xlink:href="#DejaVuSans-14"/>
     <use xlink:href="#DejaVuSans-14" transform="translate(63.625 0)"/>
    </g>
   </g>
   <g id="text_5">
    <!-- 12 -->
    <g style="fill: #0b0b0b" transform="translate(93.388628 42.502863) scale(0.05 -0.05)">
     <defs>
      <path id="DejaVuSans-15" d="M 1228 531 
L 3431 531 
L 3431 0 
L 469 0 
L 469 531 
Q 828 903 1448 1529 
Q 2069 2156 2228 2338 
Q 2531 2678 2651 2914 
Q 2772 3150 2772 3378 
Q 2772 3750 2511 3984 
Q 2250 4219 1831 4219 
Q 1534 4219 1204 4116 
Q 875 4013 500 3803 
L 500 4441 
Q 881 4594 1212 4672 
Q 1544 4750 1819 4750 
Q 2544 4750 2975 4387 
Q 3406 4025 3406 3419 
Q 3406 3131 3298 2873 
Q 3191 2616 2906 2266 
Q 2828 2175 2409 1742 
Q 1991 1309 1228 531 
z
" transform="scale(0.015625)"/>
     </defs>
     <use xlink:href="#DejaVuSans-14"/>
     <use xlink:href="#DejaVuSans-15" transform="translate(63.625 0)"/>
    </g>
   </g>
   <g id="text_6">
    <!-- 13 -->
    <g style="fill: #0b0b0b" transform="translate(112.225676 48.448189) scale(0.05 -0.05)">
     <defs>
      <path id="DejaVuSans-16" d="M 2597 2516 
Q 3050 2419 3304 2112 
Q 3559 1806 3559 1356 
Q 3559 666 3084 287 
Q 2609 -91 1734 -91 
Q 1441 -91 1130 -33 
Q 819 25 488 141 
L 488 750 
Q 750 597 1062 519 
Q 1375 441 1716 441 
Q 2309 441 2620 675 
Q 2931 909 2931 1356 
Q 2931 1769 2642 2001 
Q 2353 2234 1838 2234 
L 1294 2234 
L 1294 2753 
L 1863 2753 
Q 2328 2753 2575 2939 
Q 2822 3125 2822 3475 
Q 2822 3834 2567 4026 
Q 2313 4219 1838 4219 
Q 1578 4219 1281 4162 
Q 984 4106 628 3988 
L 628 4550 
Q 988 4650 1302 4700 
Q 1616 4750 1894 4750 
Q 2613 4750 3031 4423 
Q 3450 4097 3450 3541 
Q 3450 3153 3228 2886 
Q 3006 2619 2597 2516 
z
" transform="scale(0.015625)"/>
     </defs>
     <use xlink:href="#DejaVuSans-14"/>
     <use xlink:href="#DejaVuSans-16" transform="translate(63.625 0)"/>
    </g>
   </g>
   <g id="text_7">
    <!-- 14 -->
    <g style="fill: #0b0b0b" transform="translate(123.576429 55.267662) scale(0.05 -0.05)">
     <defs>
      <path id="DejaVuSans-17" d="M 2419 4116 
L 825 1625 
L 2419 1625 
L 2419 4116 
z
M 2253 4666 
L 3047 4666 
L 3047 1625 
L 3713 1625 
L 3713 1100 
L 3047 1100 
L 3047 0 
L 2419 0 
L 2419 1100 
L 313 1100 
L 313 1709 
L 2253 4666 
z
" transform="scale(0.015625)"/>
     </defs>
     <use xlink:href="#DejaVuSans-14"/>
     <use xlink:href="#DejaVuSans-17" transform="translate(63.625 0)"/>
    </g>
   </g>
   <g id="text_8">
    <!-- 16 -->
    <g style="fill: #0b0b0b" transform="translate(131.56717 62.140959) scale(0.05 -0.05)">
     <defs>
      <path id="DejaVuSans-19" d="M 2113 2584 
Q 1688 2584 1439 2293 
Q 1191 2003 1191 1497 
Q 1191 994 1439 701 
Q 1688 409 2113 409 
Q 2538 409 2786 701 
Q 3034 994 3034 1497 
Q 3034 2003 2786 2293 
Q 2538 2584 2113 2584 
z
M 3366 4563 
L 3366 3988 
Q 3128 4100 2886 4159 
Q 2644 4219 2406 4219 
Q 1781 4219 1451 3797 
Q 1122 3375 1075 2522 
Q 1259 2794 1537 2939 
Q 1816 3084 2150 3084 
Q 2853 3084 3261 2657 
Q 3669 2231 3669 1497 
Q 3669 778 3244 343 
Q 2819 -91 2113 -91 
Q 1303 -91 875 529 
Q 447 1150 447 2328 
Q 447 3434 972 4092 
Q 1497 4750 2381 4750 
Q 2619 4750 2861 4703 
Q 3103 4656 3366 4563 
z
" transform="scale(0.015625)"/>
     </defs>
     <use xlink:href="#DejaVuSans-14"/>
     <use xlink:href="#DejaVuSans-19" transform="translate(63.625 0)"/>
    </g>
   </g>
   <g id="text_9">
    <!-- Vdc -->
    <g style="fill: #52514e" transform="translate(79.900308 75.07302) scale(0.055 -0.055)">
     <defs>
      <path id="DejaVuSans-39" d="M 1831 0 
L 50 4666 
L 709 4666 
L 2188 738 
L 3669 4666 
L 4325 4666 
L 2547 0 
L 1831 0 
z
" transform="scale(0.015625)"/>
      <path id="DejaVuSans-47" d="M 2906 2969 
L 2906 4863 
L 3481 4863 
L 3481 0 
L 2906 0 
L 2906 525 
Q 2725 213 2448 61 
Q 2172 -91 1784 -91 
Q 1150 -91 751 415 
Q 353 922 353 1747 
Q 353 2572 751 3078 
Q 1150 3584 1784 3584 
Q 2172 3584 2448 3432 
Q 2725 3281 2906 2969 
z
M 947 1747 
Q 947 1113 1208 752 
Q 1469 391 1925 391 
Q 2381 391 2643 752 
Q 2906 1113 2906 1747 
Q 2906 2381 2643 2742 
Q 2381 3103 1925 3103 
Q 1469 3103 1208 2742 
Q 947 2381 947 1747 
z
" transform="scale(0.015625)"/>
      <path id="DejaVuSans-46" d="M 3122 3366 
L 3122 2828 
Q 2878 2963 2633 3030 
Q 2388 3097 2138 3097 
Q 1578 3097 1268 2742 
Q 959 2388 959 1747 
Q 959 1106 1268 751 
Q 1578 397 2138 397 
Q 2388 397 2633 464 
Q 2878 531 3122 666 
L 3122 134 
Q 2881 22 2623 -34 
Q 2366 -91 2075 -91 
Q 1284 -91 818 406 
Q 353 903 353 1747 
Q 353 2603 823 3093 
Q 1294 3584 2113 3584 
Q 2378 3584 2631 3529 
Q 2884 3475 3122 3366 
z
" transform="scale(0.015625)"/>
     </defs>
     <use xlink:href="#DejaVuSans-39"/>
     <use xlink:href="#DejaVuSans-47" transform="translate(68.40625 0)"/>
     <use xlink:href="#DejaVuSans-46" transform="translate(131.890625 0)"/>
    </g>
   </g>
   <g id="line2d_73">
    <path d="M 0 0 
L 0 100.629921 
L 65.19685 100.629921 
L 65.19685 83.622047 
L 104.88189 83.622047 
L 104.88189 100.629921 
L 170.07874 100.629921 
L 170.07874 0 
L 0 0 
" clip-path="url(#p624cde2c83)" style="fill: none; stroke: #ff00ff; stroke-width: 0.708661; stroke-linejoin: miter; stroke-linecap: square"/>
   </g>
   <g id="patch_3">
    <path d="M 8.503937 94.96063 
C 9.255694 94.96063 9.976762 94.661954 10.508334 94.130381 
C 11.039907 93.598809 11.338583 92.877741 11.338583 92.125984 
C 11.338583 91.374227 11.039907 90.653159 10.508334 90.121587 
C 9.976762 89.590015 9.255694 89.291339 8.503937 89.291339 
C 7.75218 89.291339 7.031112 89.590015 6.49954 90.121587 
C 5.967967 90.653159 5.669291 91.374227 5.669291 92.125984 
C 5.669291 92.877741 5.967967 93.598809 6.49954 94.130381 
C 7.031112 94.661954 7.75218 94.96063 8.503937 94.96063 
L 8.503937 94.96063 
z
" clip-path="url(#p624cde2c83)" style="fill: none; stroke: #ff00ff; stroke-width: 0.708661; stroke-linejoin: miter"/>
   </g>
   <g id="patch_4">
    <path d="M 161.574803 94.96063 
C 162.32656 94.96063 163.047628 94.661954 163.5792 94.130381 
C 164.110773 93.598809 164.409449 92.877741 164.409449 92.125984 
C 164.409449 91.374227 164.110773 90.653159 163.5792 90.121587 
C 163.047628 89.590015 162.32656 89.291339 161.574803 89.291339 
C 160.823046 89.291339 160.101978 89.590015 159.570406 90.121587 
C 159.038834 90.653159 158.740157 91.374227 158.740157 92.125984 
C 158.740157 92.877741 159.038834 93.598809 159.570406 94.130381 
C 160.101978 94.661954 160.823046 94.96063 161.574803 94.96063 
L 161.574803 94.96063 
z
" clip-path="url(#p624cde2c83)" style="fill: none; stroke: #ff00ff; stroke-width: 0.708661; stroke-linejoin: miter"/>
   </g>
  </g>
 </g>
 <defs>
  <clipPath id="p624cde2c83">
   <rect x="0" y="0" width="170.07874" height="100.629921"/>
  </clipPath>
 </defs>
</svg>
